<?xml version="1.0" standalone="no"?>
<!DOCTYPE svg PUBLIC "-//W3C//DTD SVG 20010904//EN"
 "http://www.w3.org/TR/2001/REC-SVG-20010904/DTD/svg10.dtd">
<svg version="1.0" xmlns="http://www.w3.org/2000/svg"
 width="512.000000pt" height="512.000000pt" viewBox="0 0 512.000000 512.000000"
 preserveAspectRatio="xMidYMid meet">
<metadata>
Created by potrace 1.11, written by Peter Selinger 2001-2013
</metadata>
<g transform="translate(0.000000,512.000000) scale(0.100000,-0.100000)"
fill="#000000" stroke="none">
<path d="M3420 2560 l0 -1680 798 0 c532 0 810 4 835 11 72 20 67 -100 67
1669 0 1769 5 1649 -67 1669 -25 7 -303 11 -835 11 l-798 0 0 -1680z"/>
<path d="M29 4204 l-24 -26 0 -1618 0 -1618 24 -26 24 -26 824 0 823 0 0 1670
0 1670 -823 0 -824 0 -24 -26z"/>
<path d="M2593 3070 c15 -12 35 -36 43 -52 16 -31 21 -101 9 -138 -6 -19 -10
-17 -35 23 -39 61 -110 107 -166 107 l-26 0 25 -30 c15 -18 23 -37 20 -49 -2
-10 0 -22 6 -25 16 -10 13 -37 -9 -81 -26 -51 -25 -91 4 -148 l23 -47 -22 -32
c-22 -34 -40 -108 -26 -108 5 0 41 7 81 16 l72 17 59 -59 59 -58 0 39 0 40 31
-32 c17 -17 29 -36 25 -41 -3 -6 -32 -18 -64 -27 -80 -24 -221 -22 -292 3
-101 36 -185 74 -216 98 -33 24 -44 23 -44 -7 0 -18 58 -69 120 -107 48 -28
181 -72 220 -72 23 0 33 -5 37 -20 4 -14 14 -20 33 -20 19 0 29 6 33 20 4 15
14 20 37 20 39 0 172 44 220 72 118 71 155 132 80 134 -32 0 -168 72 -210 111
-13 12 -52 143 -43 143 2 0 43 -22 91 -50 75 -43 92 -57 122 -107 31 -51 116
-131 127 -119 9 9 4 223 -7 276 -38 194 -173 316 -363 327 l-82 4 28 -21z"/>
<path d="M2310 2249 l-21 -29 63 -30 c74 -35 98 -38 98 -11 0 11 3 26 6 35 4
10 1 16 -7 16 -8 0 -38 11 -66 25 l-52 24 -21 -30z"/>
<path d="M2735 2254 c-27 -13 -56 -24 -64 -24 -8 0 -11 -6 -7 -16 3 -9 6 -24
6 -35 0 -27 24 -24 98 11 l63 30 -21 30 c-12 16 -22 30 -23 29 -1 0 -24 -11
-52 -25z"/>
</g>
</svg>
